<svg width="28" height="28" viewBox="0 0 28 28" fill="none" xmlns="http://www.w3.org/2000/svg">
<g id="devicon-plain:linkedin" clip-path="url(#clip0_22_178)">
<path id="Vector" d="M25.375 0.65625H2.625C2.10882 0.650997 1.61163 0.850728 1.24254 1.21162C0.873449 1.57251 0.662596 2.06508 0.65625 2.58125V25.4231C0.663744 25.9385 0.875101 26.43 1.24407 26.7899C1.61304 27.1499 2.10957 27.349 2.625 27.3438H25.375C25.8912 27.3478 26.3881 27.1474 26.757 26.7863C27.1259 26.4252 27.3368 25.9327 27.3438 25.4166V2.57469C27.3345 2.06003 27.1226 1.56981 26.7539 1.21057C26.3853 0.851341 25.8897 0.652133 25.375 0.65625ZM8.56844 23.4062H4.60687V10.6597H8.56844V23.4062ZM6.59969 8.92281C6.14532 8.92325 5.70102 8.7889 5.32302 8.53678C4.94501 8.28466 4.65027 7.92609 4.47609 7.50643C4.30191 7.08677 4.25611 6.62488 4.34449 6.17918C4.43287 5.73349 4.65145 5.32402 4.97259 5.00258C5.29373 4.68113 5.70299 4.46216 6.1486 4.37336C6.59421 4.28455 7.05614 4.32991 7.47597 4.50369C7.8958 4.67747 8.25465 4.97187 8.50713 5.34964C8.75961 5.7274 8.89437 6.17157 8.89437 6.62594C8.8938 6.92794 8.83368 7.22686 8.71745 7.50559C8.60121 7.78433 8.43115 8.03741 8.217 8.25034C8.00284 8.46328 7.7488 8.63189 7.4694 8.74653C7.19001 8.86117 6.89075 8.91959 6.58875 8.91844L6.59969 8.92281ZM23.4062 23.4062H19.4447V17.2047C19.4447 15.7281 19.4184 13.8272 17.3863 13.8272C15.3541 13.8272 15.0084 15.4372 15.0084 17.1084V23.4062H11.0534V10.6597H14.8509V12.4097H14.9034C15.4328 11.4078 16.7234 10.3512 18.6506 10.3512C22.6625 10.3425 23.4062 12.9828 23.4062 16.4063V23.4062Z" fill="#FFC700"/>
</g>
<defs>
<clipPath id="clip0_22_178">
<rect width="28" height="28" fill="white"/>
</clipPath>
</defs>
</svg>
