<svg width="42" height="44" viewBox="0 0 42 44" fill="none" xmlns="http://www.w3.org/2000/svg">
<g id="&#240;&#159;&#166;&#134; emoji &#34;raised hand with fingers splayed&#34;">
<path id="Vector" d="M10.3089 34.0213C7.60276 32.4246 5.93723 30.4986 5.35846 28.2993C4.80774 26.2029 5.42814 24.4746 5.72197 23.8262C6.6812 21.7063 9.05455 16.5772 9.07783 16.527L12.6583 8.38515C12.9212 7.72484 13.3381 7.27062 13.8344 7.09021C14.2375 6.94432 14.6816 6.9921 15.1151 7.23509L15.1527 7.25728C15.5735 7.50559 16.0741 8.0216 15.5414 9.60664L13.8603 14.6261C13.7252 15.0324 13.892 15.4857 14.2564 15.7007C14.2799 15.7146 14.301 15.7271 14.326 15.7386C14.7715 15.9503 15.3021 15.771 15.5305 15.3302C16.3932 13.6585 19.2555 8.1305 19.8153 7.18177C20.7516 5.59503 21.5536 5.74528 22.1454 6.05293C22.175 6.0672 22.2032 6.08385 22.2314 6.1005C23.4329 6.80936 22.7102 8.4102 22.5522 8.72628C22.0252 9.78066 18.4725 17.1556 18.4352 17.2295C18.2138 17.6584 18.3527 18.1912 18.7571 18.4298L18.7971 18.4534C19.2282 18.679 19.7564 18.5143 20.0097 18.085L26.0539 8.37826C26.5801 7.48646 27.5864 6.87152 28.4963 7.40837C28.5715 7.45276 28.6472 7.50704 28.7202 7.56607C29.4849 8.19314 29.2554 9.26962 28.7852 10.0666L23.1581 20.1408C22.9789 20.4444 23.068 20.8359 23.3634 21.023C23.6667 21.2019 24.0319 21.1201 24.236 20.844L30.266 12.9771C30.8316 12.2012 31.7822 11.643 32.6421 12.1248L32.6798 12.147C33.0841 12.3856 33.3317 12.7235 33.4195 13.1495C33.5312 13.7014 33.3514 14.3499 32.9288 14.9319C32.863 15.0274 26.567 23.9844 24.8378 26.3886C24.6837 26.6015 24.6282 26.8566 24.6821 27.109C24.7347 27.3638 24.8903 27.5835 25.1113 27.7139C25.297 27.8235 25.5125 27.8612 25.7301 27.8201C26.3332 27.7058 27.1148 27.3964 27.8688 27.0963C28.7755 26.736 29.9057 26.2869 30.3223 26.392C30.816 26.517 31.2708 26.7022 31.6823 26.945C32.3852 27.3598 32.8601 27.8926 32.9552 28.3707C33.0172 28.6792 32.7381 29.3778 32.2854 29.8174C32.1311 29.9661 31.8265 30.2084 31.5212 30.1403C29.6606 29.7107 25.3686 31.6452 23.4855 32.8492C23.1535 33.0626 22.8105 33.343 22.4142 33.6656C20.2908 35.3896 17.0753 38.0137 10.3089 34.0213Z" fill="url(#paint0_radial_1_165)"/>
<path id="Vector_2" d="M28.2882 7.75563C28.3469 7.79031 28.4029 7.82974 28.4608 7.87668C29.1907 8.47682 28.5673 9.62464 28.4344 9.84996L28.4246 9.86656L22.8058 19.9266C22.5152 20.4298 22.6643 21.0582 23.152 21.3651L23.1778 21.3804C23.641 21.6536 24.2328 21.5264 24.563 21.0849L30.5944 13.2156C30.5972 13.2109 30.6037 13.2051 30.6065 13.2004C31.0576 12.5809 31.8017 12.1149 32.4448 12.4753L32.4754 12.4933C32.7763 12.6709 32.9607 12.9171 33.0228 13.2255C33.1097 13.6637 32.9581 14.1946 32.6037 14.6825L32.5967 14.6944C32.5336 14.7851 26.2404 23.7374 24.5136 26.143C24.2936 26.4513 24.2114 26.8217 24.2863 27.1888C24.3613 27.556 24.5881 27.8753 24.9079 28.064C25.1759 28.2221 25.498 28.2779 25.8089 28.2183C26.4504 28.098 27.2156 27.7949 28.0216 27.471C28.7226 27.1908 29.8983 26.7238 30.2251 26.7823C30.6741 26.897 31.1065 27.0721 31.4779 27.2913C32.1903 27.7116 32.5035 28.1746 32.5565 28.4393C32.5754 28.6007 32.3691 29.1921 31.9612 29.5557C31.8064 29.6946 31.6803 29.7417 31.6211 29.7292C29.5543 29.2515 25.0925 31.3288 23.2735 32.4939C22.921 32.7207 22.5508 33.0203 22.1634 33.3385C21.1373 34.1752 19.8594 35.2182 18.0601 35.5763C15.8961 36.0101 13.4318 35.3842 10.5235 33.6682C7.91139 32.127 6.30951 30.2866 5.75974 28.194C5.24373 26.2268 5.82461 24.603 6.09935 23.9977C7.05718 21.8801 9.43053 16.7511 9.45382 16.7009C9.45662 16.6962 9.45941 16.6914 9.45986 16.6853L13.0376 8.54816C13.0432 8.53867 13.045 8.53017 13.0506 8.52068C13.2595 7.99481 13.5988 7.61308 13.9779 7.47546C14.2727 7.36801 14.591 7.40873 14.922 7.59443L14.9502 7.61108C15.1595 7.73454 15.6485 8.02308 15.1623 9.47566L13.4812 14.4951C13.2824 15.0845 13.5263 15.74 14.0577 16.0535C14.0906 16.073 14.1249 16.09 14.1592 16.1071C14.8074 16.416 15.5732 16.1548 15.9046 15.5126C17.6795 12.08 19.7342 8.14113 20.1806 7.38452C21.0385 5.9306 21.6209 6.2327 21.9683 6.41209C21.9909 6.42221 22.0144 6.43608 22.0356 6.44856C22.9243 6.97293 22.3287 8.27783 22.1996 8.53421C21.6753 9.58385 18.2806 16.6267 18.084 17.0351C17.7657 17.6658 17.9748 18.4287 18.5626 18.7755C18.5814 18.7866 18.6002 18.7977 18.6298 18.812C19.2405 19.1307 20.0041 18.9002 20.3713 18.2887L26.4169 8.57963L26.4267 8.56302C26.6772 8.13847 27.0163 7.82695 27.3785 7.68575C27.6915 7.56349 28.0013 7.58639 28.2882 7.75563ZM28.708 7.04409C27.6524 6.42123 26.4042 6.97339 25.7087 8.15218L19.6603 17.866C19.5189 18.1055 19.2288 18.1998 19.0008 18.0812L18.9937 18.0771L18.9726 18.0646C18.7539 17.9356 18.6821 17.6437 18.8079 17.3982C18.8079 17.3982 22.3895 9.96363 22.9207 8.90213C23.4389 7.86811 23.6173 6.43219 22.4441 5.73997C22.4112 5.72055 22.376 5.69974 22.3393 5.68131C21.0503 5.01348 20.1386 5.82809 19.4654 6.96894C18.8903 7.94376 16.0005 13.5291 15.168 15.1387C15.0436 15.3818 14.7506 15.4808 14.5067 15.3624C14.4949 15.3555 14.4794 15.3495 14.4677 15.3426C14.2678 15.2247 14.1755 14.9783 14.2483 14.7527L15.9295 9.73327C16.3414 8.50866 16.3148 7.46333 15.3602 6.90012L15.3132 6.87237C14.0654 6.17769 12.8289 6.83905 12.2805 8.21975L8.70276 16.3569C8.70276 16.3569 6.31497 21.5158 5.34409 23.6608C4.37321 25.8059 3.7002 30.6048 10.0952 34.378C18.3475 39.2471 21.6288 34.5132 23.7025 33.185C25.6333 31.9485 29.7888 30.1541 31.424 30.5306C32.4816 30.7741 33.5065 29.0478 33.3532 28.2763C33.2338 27.6782 32.691 27.051 31.8893 26.578C31.4661 26.3283 30.9675 26.1204 30.4246 25.9823C29.5012 25.7477 27.036 27.1485 25.6573 27.4062C25.5293 27.4298 25.4133 27.4061 25.3193 27.3506C25.0842 27.2119 24.9807 26.8823 25.1689 26.6224C26.9201 24.1863 33.2586 15.1681 33.2586 15.1681C34.1239 13.9808 34.1056 12.5023 32.8901 11.7851L32.8431 11.7574C31.843 11.1961 30.6731 11.7177 29.939 12.7202L23.9034 20.5966C23.8258 20.7011 23.6922 20.7342 23.5911 20.6745L23.5864 20.6718L23.5817 20.669C23.475 20.6028 23.4454 20.4542 23.5139 20.338L29.1369 10.2709C29.7681 9.20118 29.8665 7.97067 28.9804 7.24318C28.8942 7.16357 28.802 7.09958 28.708 7.04409Z" fill="#EDA600"/>
<g id="Clip path group">
<mask id="mask0_1_165" style="mask-type:luminance" maskUnits="userSpaceOnUse" x="4" y="5" width="30" height="32">
<g id="b">
<path id="Vector_3" d="M33.3593 28.2767C33.1796 27.3618 32.0017 26.3822 30.4283 25.9814C29.2076 25.6705 25.2941 28.2152 24.757 27.2077C25.1071 26.6628 33.4452 15.2815 33.4452 15.2815C34.3227 14.079 34.0498 12.3927 32.7908 11.717C31.7795 11.1747 30.4783 11.5805 29.7465 12.5844L23.9173 20.573C23.8393 20.6836 23.7146 20.6963 23.6088 20.6339L23.6041 20.6311C23.4983 20.5687 23.4411 20.4454 23.511 20.3268L29.3677 10.4008C29.9989 9.33109 29.834 7.94521 28.9455 7.21633C27.841 6.30564 26.1672 6.69295 25.4101 7.9761L19.5967 17.8286C19.4554 18.0682 19.1982 18.1818 18.9702 18.0633L18.9796 18.0688C18.7445 17.9461 18.6717 17.6505 18.8031 17.3956L23.1421 9.02649C23.7131 7.92449 23.5005 6.57119 22.5695 5.90358C21.4103 5.06936 19.7857 5.57204 19.1005 6.89444L14.6824 15.4246C14.5868 15.608 14.3604 15.6695 14.207 15.5534L14.2023 15.5506C14.0931 15.467 14.0565 15.3143 14.1132 15.1751L16.2181 9.8941C16.6763 8.74153 16.323 7.43317 15.3216 6.87425C14.0738 6.17957 12.4953 6.85655 11.9468 8.23726L8.71256 16.3564C8.71256 16.3564 6.32477 21.5153 5.35389 23.6603C4.38302 25.8054 3.71001 30.6043 10.105 34.3775C18.3573 39.2466 21.6386 34.5127 23.7123 33.1845C25.6431 31.948 29.7986 30.1536 31.4338 30.5301C32.4839 30.7756 33.5126 29.0483 33.3593 28.2767Z" fill="white"/>
</g>
</mask>
<g mask="url(#mask0_1_165)">
<g id="Group">
<path id="Vector_4" d="M26.2538 26.4919C22.7003 25.0315 18.8953 26.8122 16.0839 29.4604C15.6966 29.8267 16.0457 30.2181 16.433 29.8519C19.0545 27.3857 22.8352 26.7099 26.1279 28.0644C26.6124 28.2639 26.8264 27.4661 26.3443 27.2679L26.2538 26.4919Z" fill="#EDA600"/>
</g>
</g>
</g>
</g>
<defs>
<radialGradient id="paint0_radial_1_165" cx="0" cy="0" r="1" gradientUnits="userSpaceOnUse" gradientTransform="translate(23.4258 13.237) rotate(30.5419) scale(25.2755 25.4984)">
<stop offset="0.3533" stop-color="#FFCA28"/>
<stop offset="0.8723" stop-color="#FFB300"/>
</radialGradient>
</defs>
</svg>
