<svg width="32" height="32" viewBox="0 0 32 32" fill="none" xmlns="http://www.w3.org/2000/svg">
<g id="mingcute:facebook-fill" clip-path="url(#clip0_22_168)">
<g id="Group">
<path id="Vector" d="M18 29.184C24.4146 28.2187 29.3333 22.684 29.3333 16C29.3333 8.636 23.364 2.66667 16 2.66667C8.63596 2.66667 2.66663 8.636 2.66663 16C2.66663 22.684 7.58529 28.22 14 29.184V20H12C11.4695 20 10.9608 19.7893 10.5857 19.4142C10.2107 19.0391 9.99996 18.5304 9.99996 18C9.99996 17.4696 10.2107 16.9609 10.5857 16.5858C10.9608 16.2107 11.4695 16 12 16H14V13.3333C14 12.0957 14.4916 10.9087 15.3668 10.0335C16.242 9.15833 17.4289 8.66667 18.6666 8.66667H19.3333C19.8637 8.66667 20.3724 8.87738 20.7475 9.25245C21.1226 9.62753 21.3333 10.1362 21.3333 10.6667C21.3333 11.1971 21.1226 11.7058 20.7475 12.0809C20.3724 12.456 19.8637 12.6667 19.3333 12.6667H18.6666C18.4898 12.6667 18.3202 12.7369 18.1952 12.8619C18.0702 12.987 18 13.1565 18 13.3333V16H20C20.5304 16 21.0391 16.2107 21.4142 16.5858C21.7892 16.9609 22 17.4696 22 18C22 18.5304 21.7892 19.0391 21.4142 19.4142C21.0391 19.7893 20.5304 20 20 20H18V29.184Z" fill="#FFC700"/>
</g>
</g>
<defs>
<clipPath id="clip0_22_168">
<rect width="32" height="32" fill="white"/>
</clipPath>
</defs>
</svg>
