<svg width="24" height="24" viewBox="0 0 24 24" fill="none" xmlns="http://www.w3.org/2000/svg">
<g id="solar:phone-bold">
<path id="Vector" d="M16.556 12.906L16.101 13.359C16.101 13.359 15.018 14.435 12.063 11.497C9.108 8.559 10.191 7.48299 10.191 7.48299L10.477 7.19699C11.184 6.49499 11.251 5.36699 10.634 4.54299L9.374 2.85999C8.61 1.83999 7.135 1.70499 6.26 2.57499L4.69 4.13499C4.257 4.56699 3.967 5.12499 4.002 5.74499C4.092 7.33199 4.81 10.745 8.814 14.727C13.061 18.949 17.046 19.117 18.675 18.965C19.191 18.917 19.639 18.655 20 18.295L21.42 16.883C22.38 15.93 22.11 14.295 20.882 13.628L18.972 12.589C18.166 12.151 17.186 12.28 16.556 12.906Z" fill="#FFC700"/>
</g>
</svg>
